<svg xmlns="http://www.w3.org/2000/svg" width="34" height="34" viewBox="0 0 34 34">
  <g id="페이스북" transform="translate(-1789 -217.352)">
    <path id="패스_182" data-name="패스 182" d="M285.141,474.619h2.479v-2.41a6.438,6.438,0,0,1,.8-3.714,4.409,4.409,0,0,1,3.847-1.8,15.619,15.619,0,0,1,4.444.445l-.62,3.673a8.374,8.374,0,0,0-2-.3c-.964,0-1.827.344-1.827,1.308v2.8h3.953l-.276,3.585h-3.677v12.459H287.62V478.2h-2.479v-3.585" transform="translate(1516.064 -243.879)" fill="#222"/>
    <rect id="사각형_729" data-name="사각형 729" width="34" height="34" transform="translate(1789 217.352)" fill="none"/>
  </g>
</svg>
