<svg xmlns="http://www.w3.org/2000/svg" width="19" height="19" viewBox="0 0 19 19">
  <g id="그룹_68" data-name="그룹 68" transform="translate(-0.413)">
    <rect id="사각형_103" data-name="사각형 103" width="19" height="19" transform="translate(0.413 0)" fill="none"/>
    <g id="그룹_67" data-name="그룹 67" transform="translate(1.099 1.099)">
      <path id="패스_95" data-name="패스 95" d="M430.714,653.613h-6.607a5.3,5.3,0,0,0-5.3,5.3v6.606a5.3,5.3,0,0,0,5.3,5.3h6.607a5.3,5.3,0,0,0,5.3-5.3v-6.606A5.3,5.3,0,0,0,430.714,653.613Zm3.652,11.277a4.286,4.286,0,0,1-4.285,4.286h-5.339a4.286,4.286,0,0,1-4.286-4.286v-5.339a4.287,4.287,0,0,1,4.286-4.286h5.339a4.287,4.287,0,0,1,4.285,4.286Z" transform="translate(-418.803 -653.613)" fill="#767576"/>
      <path id="패스_96" data-name="패스 96" d="M431.318,661.222a4.534,4.534,0,1,0,4.535,4.534A4.534,4.534,0,0,0,431.318,661.222Zm0,7.262a2.728,2.728,0,1,1,2.728-2.728A2.728,2.728,0,0,1,431.318,668.484Z" transform="translate(-422.48 -657.119)" fill="#767576"/>
      <path id="패스_97" data-name="패스 97" d="M443.188,660.1a1.153,1.153,0,1,1-1.154-1.153A1.154,1.154,0,0,1,443.188,660.1Z" transform="translate(-428.976 -656.073)" fill="#767576"/>
    </g>
  </g>
</svg>
