<svg xmlns="http://www.w3.org/2000/svg" width="50" height="50" viewBox="0 0 50 50">
  <g id="그룹_987" data-name="그룹 987" transform="translate(-290 -358)">
    <rect id="사각형_849" data-name="사각형 849" width="50" height="50" rx="25" transform="translate(290 358)" fill="#fff"/>
    <g id="그룹_984" data-name="그룹 984" transform="translate(-593 -446)">
      <g id="그룹_985" data-name="그룹 985" transform="translate(896 817)">
        <path id="패스_187" data-name="패스 187" d="M-657.821,822.849v-6.225h6.225" transform="translate(657.821 -816.624)" fill="none" stroke="#222" stroke-miterlimit="10" stroke-width="3"/>
        <path id="패스_188" data-name="패스 188" d="M-651.6,822.849v-6.225h-6.225" transform="translate(675.719 -816.624)" fill="none" stroke="#222" stroke-miterlimit="10" stroke-width="3"/>
        <path id="패스_189" data-name="패스 189" d="M-657.821,816.624v6.225h6.225" transform="translate(657.821 -798.727)" fill="none" stroke="#222" stroke-miterlimit="10" stroke-width="3"/>
        <path id="패스_190" data-name="패스 190" d="M-651.6,816.624v6.225h-6.225" transform="translate(675.719 -798.727)" fill="none" stroke="#222" stroke-miterlimit="10" stroke-width="3"/>
      </g>
      <g id="패스_191" data-name="패스 191" transform="translate(899.502 820.502)" fill="#222">
        <path d="M 8.559617042541504 16.11923789978027 C 4.391227245330811 16.11923789978027 0.9999970197677612 12.72800731658936 0.9999970197677612 8.559617042541504 C 0.9999970197677612 4.391227245330811 4.391227245330811 0.9999970197677612 8.559617042541504 0.9999970197677612 C 12.72800731658936 0.9999970197677612 16.11923789978027 4.391227245330811 16.11923789978027 8.559617042541504 C 16.11923789978027 12.72800731658936 12.72800731658936 16.11923789978027 8.559617042541504 16.11923789978027 Z" stroke="none"/>
        <path d="M 8.559617042541504 1.999997138977051 C 4.942626953125 1.999997138977051 1.999997138977051 4.942626953125 1.999997138977051 8.559617042541504 C 1.999997138977051 12.17660713195801 4.942626953125 15.11923694610596 8.559617042541504 15.11923694610596 C 12.17660713195801 15.11923694610596 15.11923694610596 12.17660713195801 15.11923694610596 8.559617042541504 C 15.11923694610596 4.942626953125 12.17660713195801 1.999997138977051 8.559617042541504 1.999997138977051 M 8.559617042541504 -3.814697265625e-06 C 13.28696727752686 -3.814697265625e-06 17.11923789978027 3.832266807556152 17.11923789978027 8.559617042541504 C 17.11923789978027 13.28696727752686 13.28696727752686 17.11923789978027 8.559617042541504 17.11923789978027 C 3.832266807556152 17.11923789978027 -3.814697265625e-06 13.28696727752686 -3.814697265625e-06 8.559617042541504 C -3.814697265625e-06 3.832266807556152 3.832266807556152 -3.814697265625e-06 8.559617042541504 -3.814697265625e-06 Z" stroke="none" fill="#222"/>
      </g>
      <g id="그룹_986" data-name="그룹 986" transform="translate(904.949 825.949)">
        <line id="선_9" data-name="선 9" x2="6.225" transform="translate(0 3.113)" fill="none" stroke="#fff" stroke-width="1.6"/>
        <line id="선_10" data-name="선 10" x2="6.225" transform="translate(3.113 0) rotate(90)" fill="none" stroke="#fff" stroke-width="1.6"/>
      </g>
    </g>
  </g>
</svg>
