<svg xmlns="http://www.w3.org/2000/svg" width="62.732" height="24" viewBox="0 0 62.732 24">
  <path id="logo" d="M319.977,341.8l6.844-2.8s8.3,3.48,9.93,4.067a4.6,4.6,0,0,0,3.818.157,5.531,5.531,0,0,0,1.863-1.019c.247-.264.181-.732-.767-1.155s-9.684-4.161-9.684-4.161l6.844-2.806s6.959,2.944,8.9,3.75,3.218,1.2,5.636.184,28.15-12.156,28.15-12.156l1.2,2.291s-29.451,15.736-32.073,17.068-7.352,3.93-8.769,4.4-2.788.211-4.642-.542S319.977,341.8,319.977,341.8Z" transform="translate(-319.977 -325.869)" fill="#222"/>
</svg>
