<svg xmlns="http://www.w3.org/2000/svg" width="22" height="20.254" viewBox="0 0 22 20.254">
  <g id="favorite" transform="translate(2 2)">
    <g id="Shape" fill="none" stroke-miterlimit="10">
      <path d="M16.688,1.419a4.311,4.311,0,0,0-6.394,0L9,2.758,7.726,1.419a4.311,4.311,0,0,0-6.394,0,5.018,5.018,0,0,0,0,6.81L9,15.5l7.688-7.271A5.076,5.076,0,0,0,16.688,1.419Z" stroke="none"/>
      <path d="M 4.518783569335938 9.5367431640625e-07 C 3.360908508300781 9.5367431640625e-07 2.206448554992676 0.4729442596435547 1.332063674926758 1.418828964233398 C -0.4440269470214844 3.310598373413086 -0.4440269470214844 6.366528511047363 1.332063674926758 8.229198455810547 L 9.000003814697266 15.49999904632568 L 16.68842315673828 8.229198455810547 C 18.43719482421875 6.366528511047363 18.43719482421875 3.310598373413086 16.68842315673828 1.418828964233398 C 14.91233348846436 -0.4729404449462891 12.04326343536377 -0.4729404449462891 10.29449462890625 1.418828964233398 L 9.000003814697266 2.75761890411377 L 7.725994110107422 1.418828964233398 C 6.837948799133301 0.4729442596435547 5.676658630371094 9.5367431640625e-07 4.518783569335938 9.5367431640625e-07 M 4.518783569335938 -2.000001907348633 C 6.204416275024414 -2.000001907348633 7.789578437805176 -1.33770751953125 9.009289741516113 -0.1296491622924805 C 10.21669387817383 -1.337875366210938 11.79467964172363 -2.000001907348633 13.48121452331543 -2.000001907348633 C 15.24861335754395 -2.000001907348633 16.90545463562012 -1.272001266479492 18.14651489257812 0.04989910125732422 L 18.15705299377441 0.06120872497558594 C 19.34549331665039 1.34683895111084 20.00000381469727 3.042168617248535 20.00000381469727 4.834928512573242 C 20.00000381469727 6.633439064025879 19.34175491333008 8.325038909912109 18.14651489257812 9.598129272460938 L 18.1058235168457 9.6414794921875 L 8.998173713684082 18.25441932678223 L -0.08062553405761719 9.645828247070312 L -0.115386962890625 9.609369277954102 C -1.330705642700195 8.334818840026855 -2.000005722045898 6.639219284057617 -2.000005722045898 4.834928512573242 C -2.000005722045898 3.039273262023926 -1.336521148681641 1.342382431030273 -0.1317081451416016 0.05595970153808594 C 1.096488952636719 -1.269853591918945 2.747824668884277 -2.000001907348633 4.518783569335938 -2.000001907348633 Z" stroke="none" fill="#fff"/>
    </g>
  </g>
</svg>
