<svg xmlns="http://www.w3.org/2000/svg" width="34" height="34" viewBox="0 0 34 34">
  <g id="스토리" transform="translate(4631.471 -12355.529)">
    <path id="패스_180" data-name="패스 180" d="M606.3,129.147h-9.035a1.1,1.1,0,0,0-1.1,1.092v8.96a1.1,1.1,0,0,0,1.1,1.092h4.166a6.743,6.743,0,0,1-1.119,3.255A13.087,13.087,0,0,1,598.026,146a.6.6,0,0,0-.212.439.628.628,0,0,0,.154.369l2.906,3.257a.718.718,0,0,0,.257.176.462.462,0,0,0,.384-.044,14.6,14.6,0,0,0,5.883-11.345c0-.015,0-8.612,0-8.612a1.1,1.1,0,0,0-1.1-1.092" transform="translate(-5215.908 12233.891)" fill="#222"/>
    <rect id="사각형_731" data-name="사각형 731" width="34" height="34" transform="translate(-4631.471 12355.529)" fill="none"/>
  </g>
</svg>
