<svg xmlns="http://www.w3.org/2000/svg" width="34" height="34" viewBox="0 0 34 34">
  <g id="트위터" transform="translate(4549 -12360.908)">
    <path id="패스_181" data-name="패스 181" d="M229.631,142.223c9.5,0,14.7-8.394,14.7-15.672,0-.239,0-.476-.015-.712a10.925,10.925,0,0,0,2.577-2.852,9.825,9.825,0,0,1-2.967.867,5.48,5.48,0,0,0,2.272-3.047,9.971,9.971,0,0,1-3.281,1.337,5.018,5.018,0,0,0-3.771-1.74,5.347,5.347,0,0,0-5.168,5.508,5.838,5.838,0,0,0,.134,1.256,14.389,14.389,0,0,1-10.65-5.755,5.771,5.771,0,0,0-.7,2.768,5.609,5.609,0,0,0,2.3,4.585,4.891,4.891,0,0,1-2.34-.689c0,.023,0,.046,0,.07a5.434,5.434,0,0,0,4.145,5.4,4.846,4.846,0,0,1-2.333.094,5.227,5.227,0,0,0,4.827,3.826,9.968,9.968,0,0,1-6.417,2.358,9.863,9.863,0,0,1-1.233-.076,13.976,13.976,0,0,0,7.92,2.474" transform="translate(-4766.347 12247.308)" fill="#222"/>
    <rect id="사각형_730" data-name="사각형 730" width="34" height="34" transform="translate(-4549 12360.908)" fill="none"/>
  </g>
</svg>
