<svg xmlns="http://www.w3.org/2000/svg" width="40.762" height="15.294" viewBox="0 0 40.762 15.294">
  <g id="icon" transform="translate(-48.619 -5041)">
    <path id="패스_108" data-name="패스 108" d="M319.977,336.023l4.447-1.782s5.392,2.217,6.452,2.591a3.039,3.039,0,0,0,2.481.1,3.611,3.611,0,0,0,1.211-.649c.16-.168.118-.466-.5-.736s-6.292-2.652-6.292-2.652l4.447-1.788s4.522,1.876,5.785,2.39a4.029,4.029,0,0,0,3.662.117c1.572-.649,18.291-7.746,18.291-7.746l.777,1.46S341.6,337.357,339.9,338.205s-4.777,2.5-5.7,2.806a4.231,4.231,0,0,1-3.017-.345C329.979,340.184,319.977,336.023,319.977,336.023Z" transform="translate(-271.358 4715.131)"/>
  </g>
</svg>
