<svg xmlns="http://www.w3.org/2000/svg" width="18" height="18.401" viewBox="0 0 18 18.401">
  <g id="초기화" transform="translate(-20.287 -714.54)">
    <g id="패스_106" data-name="패스 106" transform="translate(20.287 715.947)" fill="none">
      <path d="M8.5,0a8.653,8.653,0,0,1,5.6,2.11A8.328,8.328,0,0,1,16.994,8.5,8.5,8.5,0,1,1,8.5,0Z" stroke="none"/>
      <path d="M 8.49698543548584 1.999995231628418 C 4.914535522460938 1.999995231628418 1.999995231628418 4.914535522460938 1.999995231628418 8.49698543548584 C 1.999995231628418 12.07943534851074 4.914535522460938 14.99397563934326 8.49698543548584 14.99397563934326 C 12.07943534851074 14.99397563934326 14.99397563934326 12.07943534851074 14.99397563934326 8.49698543548584 C 14.99397563934326 6.597575187683105 14.16787528991699 4.744405746459961 12.83805561065674 3.660665512084961 L 12.83081531524658 3.654735565185547 C 11.47748565673828 2.541265487670898 10.05987548828125 1.999995231628418 8.49698543548584 1.999995231628418 M 8.49698543548584 -3.814697265625e-06 C 10.5383358001709 -3.814697265625e-06 12.41155529022217 0.7198562622070312 14.10152530670166 2.110295295715332 C 15.77956581115723 3.477815628051758 16.99397468566895 5.845575332641602 16.99397468566895 8.49698543548584 C 16.99397468566895 13.18974494934082 13.18974494934082 16.99397468566895 8.49698543548584 16.99397468566895 C 3.804235458374023 16.99397468566895 -3.814697265625e-06 13.18974494934082 -3.814697265625e-06 8.49698543548584 C -3.814697265625e-06 3.804235458374023 3.804235458374023 -3.814697265625e-06 8.49698543548584 -3.814697265625e-06 Z" stroke="none" fill="#fff"/>
    </g>
    <rect id="사각형_212" data-name="사각형 212" width="6" height="6" transform="translate(37.282 718.998) rotate(90)" fill="#222"/>
    <path id="패스_107" data-name="패스 107" d="M3.718,0,7.437,4.958H0Z" transform="translate(38.287 717.019) rotate(120)" fill="#fff"/>
  </g>
</svg>
